<?xml version="1.0" standalone="no"?>
<!DOCTYPE svg PUBLIC "-//W3C//DTD SVG 20010904//EN"
 "http://www.w3.org/TR/2001/REC-SVG-20010904/DTD/svg10.dtd">
<svg version="1.0" xmlns="http://www.w3.org/2000/svg"
 width="1056.000000pt" height="1056.000000pt" viewBox="0 0 1056.000000 1056.000000"
 preserveAspectRatio="xMidYMid meet">
<metadata>
Created by potrace 1.14, written by Peter Selinger 2001-2017
</metadata>
<g transform="translate(0.000000,1056.000000) scale(0.100000,-0.100000)"
fill="#000000" stroke="none">
<path d="M7008 8675 c-2 -2 -55 -6 -118 -9 -63 -4 -128 -9 -145 -11 -67 -9
-131 -18 -150 -21 -11 -2 -47 -9 -80 -14 -450 -78 -928 -276 -1325 -549 -127
-87 -170 -120 -315 -241 -56 -47 -301 -295 -361 -365 -81 -96 -171 -215 -237
-314 -44 -66 -57 -79 -64 -67 -12 22 -185 197 -251 255 -260 225 -565 390
-907 490 -94 27 -249 61 -310 68 -27 3 -52 6 -55 8 -28 17 -394 25 -530 12
-242 -25 -472 -81 -710 -174 -230 -90 -437 -209 -638 -367 -56 -44 -279 -276
-326 -339 -118 -159 -224 -348 -299 -533 -23 -57 -76 -219 -82 -253 -2 -9 -4
-16 -5 -16 -1 0 -3 -7 -5 -15 -2 -8 -10 -46 -19 -85 -21 -89 -53 -302 -63
-414 -33 -405 42 -839 203 -1177 20 -44 38 -81 39 -84 5 -21 69 -132 123 -215
96 -149 184 -257 312 -386 225 -226 430 -366 731 -502 137 -62 424 -146 548
-162 30 -4 63 -9 75 -11 60 -12 179 -18 341 -17 163 0 219 5 435 39 19 3 62
12 95 21 33 8 67 16 75 18 8 2 53 15 100 30 257 82 500 208 737 384 35 26 36
26 79 -31 21 -28 85 -102 163 -192 519 -598 949 -967 1356 -1165 135 -66 489
-201 669 -256 100 -30 231 -62 330 -81 11 -2 32 -6 46 -9 45 -8 84 -14 140
-21 30 -3 64 -8 74 -10 131 -24 616 -24 776 1 14 2 49 7 79 10 30 4 63 9 75
11 11 2 38 6 61 9 79 12 262 56 393 95 450 135 875 370 1243 686 142 122 226
206 388 388 104 118 340 463 437 641 120 219 197 388 257 565 31 92 55 173 61
205 1 6 5 19 9 30 3 11 8 31 11 45 2 14 11 57 20 95 16 74 41 257 51 365 6 73
7 367 1 420 -3 19 -7 71 -11 114 -4 43 -8 87 -10 96 -2 10 -6 35 -10 56 -12
77 -15 99 -20 124 -3 14 -7 34 -9 46 -32 168 -114 438 -192 631 -79 196 -254
543 -274 543 -4 0 -19 19 -33 43 -37 63 -151 220 -230 317 -205 252 -446 475
-702 651 -335 229 -679 384 -1095 494 -138 36 -381 76 -555 90 -76 7 -392 14
-397 10z"/>
</g>
</svg>
